<?xml version="1.0" encoding="UTF-8"?>
<svg id="Layer_1" data-name="Layer 1" xmlns="http://www.w3.org/2000/svg" viewBox="0 0 3000 2094.3047">
  <rect y="0" width="3000" height="2094.3048" fill="#fff"/>
  <g>
    <path d="M828.4933,1518.3707v-104.9961c0-32.725-26.5288-59.2539-59.2538-59.2539h-74.9185v499.341h252.6801v-216.5833c0-32.725-26.5288-59.2538-59.2538-59.2538h-.0002c-32.7249,0-59.2538-26.5289-59.2538-59.2539Z" fill="#b6d5d0"/>
    <polygon points="1472.4445 1728.5658 1424.6327 1775.2538 1408.5525 1751.3479 1382.8894 1713.1802 1444.3703 1684.6158 1461.1454 1710.8918 1472.4445 1728.5658" fill="#e9928b"/>
    <path d="M1461.1454,1710.8918c-24.6619,12.5659-43.5823,30.7916-52.5929,40.4561l-25.6631-38.1677,61.4809-28.5644,16.7751,26.276Z" fill="#de6667"/>
    <rect x="598.5932" y="327.8323" width="1014.912" height="529.1986" fill="#edf6f5"/>
    <rect x="654.2715" y="375.3867" width="163.459" height="150.7609" fill="#dceceb"/>
    <g>
      <polygon points="1512.7368 511.8722 1506.607 511.8722 1506.607 502.6776 1497.4125 502.6776 1497.4125 496.5479 1512.7368 496.5479 1512.7368 511.8722" fill="#b6d5d0"/>
      <path d="M1472.3409,502.6776h-25.0736v-6.1297h25.0736v6.1297Zm-50.1451,0h-25.0736v-6.1297h25.0736v6.1297Zm-50.1451,0h-25.0736v-6.1297h25.0736v6.1297Zm-50.1452,0h-25.0735v-6.1297h25.0735v6.1297Zm-50.1451,0h-25.0736v-6.1297h25.0736v6.1297Zm-50.1451,0h-25.0736v-6.1297h25.0736v6.1297Zm-50.1452,0h-25.0735v-6.1297h25.0735v6.1297Zm-50.1471,0h-25.0715v-6.1297h25.0715v6.1297Zm-50.1451,0h-25.0716v-6.1297h25.0716v6.1297Z" fill="#b6d5d0"/>
      <polygon points="1011.8382 511.8722 1005.7085 511.8722 1005.7085 496.5479 1021.0328 496.5479 1021.0328 502.6776 1011.8382 502.6776 1011.8382 511.8722" fill="#b6d5d0"/>
      <path d="M1011.8382,762.2806h-6.1297v-25.0417h6.1297v25.0417Zm0-50.0813h-6.1297v-25.0416h6.1297v25.0416Zm0-50.0813h-6.1297v-25.0416h6.1297v25.0416Zm0-50.0813h-6.1297v-25.0416h6.1297v25.0416Zm0-50.0812h-6.1297v-25.0417h6.1297v25.0417Z" fill="#b6d5d0"/>
      <polygon points="1021.0328 802.6445 1005.7085 802.6445 1005.7085 787.3202 1011.8382 787.3202 1011.8382 796.5148 1021.0328 796.5148 1021.0328 802.6445" fill="#b6d5d0"/>
      <path d="M1472.3409,802.6445h-25.0716v-6.1297h25.0716v6.1297Zm-50.1451,0h-25.0716v-6.1297h25.0716v6.1297Zm-50.1451,0h-25.0736v-6.1297h25.0736v6.1297Zm-50.1452,0h-25.0735v-6.1297h25.0735v6.1297Zm-50.1451,0h-25.0736v-6.1297h25.0736v6.1297Zm-50.1451,0h-25.0736v-6.1297h25.0736v6.1297Zm-50.1452,0h-25.0735v-6.1297h25.0735v6.1297Zm-50.1451,0h-25.0735v-6.1297h25.0735v6.1297Zm-50.1451,0h-25.0736v-6.1297h25.0736v6.1297Z" fill="#b6d5d0"/>
      <polygon points="1512.7368 802.6445 1497.4125 802.6445 1497.4125 796.5148 1506.607 796.5148 1506.607 787.3202 1512.7368 787.3202 1512.7368 802.6445" fill="#b6d5d0"/>
      <path d="M1512.7368,762.2806h-6.1298v-25.0417h6.1298v25.0417Zm0-50.0813h-6.1298v-25.0416h6.1298v25.0416Zm0-50.0813h-6.1298v-25.0416h6.1298v25.0416Zm0-50.0813h-6.1298v-25.0416h6.1298v25.0416Zm0-50.0812h-6.1298v-25.0417h6.1298v25.0417Z" fill="#b6d5d0"/>
    </g>
    <rect x="489.8256" y="592.7722" width="564.8857" height="292.8641" rx="15.1799" ry="15.1799" fill="#b2e5e0"/>
    <rect x="508.2147" y="611.1613" width="564.8858" height="292.8641" rx="15.1799" ry="15.1799" fill="#3fb8a9"/>
    <path d="M548.5339,882.5714h480.1609s-16.0054-112.0375-41.2053-146.0915c-25.1999-34.054-46.3134,12.9405-74.2377,68.789-27.9242,55.8485-85.8159,81.0484-128.0429,25.1999-42.2269-55.8485-61.2971-73.5565-108.2916-43.589-46.9944,29.9675-83.7727,4.7675-99.4375-34.054-15.6649-38.8215-28.9459-38.1404-28.9459-38.1404v167.886Z" fill="#fff" opacity=".67"/>
    <path d="M548.5339,882.5714s22.1351,1.0216,39.8431-23.4972c17.7081-24.5189,22.4756-61.9782,41.5459-73.5566,19.0702-11.5783,36.7782,.0061,63.3403,48.5299,26.5621,48.5239,68.108,25.7077,85.816-22.6489,17.7081-48.3566,25.881-71.5133,55.1675-74.2376,29.2864-2.7243,47.6755,33.3729,57.8917,68.1079s36.7783,46.3134,63.3404,32.0107c26.5621-14.3026,73.216,45.2918,73.216,45.2918h-480.1609Z" fill="#fff" opacity=".28"/>
    <path d="M557.7285,653.3882h0c-5.0781,0-9.1946-4.1165-9.1946-9.1945h0c0-5.0781,4.1165-9.1946,9.1946-9.1946h0c5.078,0,9.1945,4.1165,9.1945,9.1945h0c0,5.0781-4.1165,9.1946-9.1945,9.1946Z" fill="#fff"/>
    <rect x="589.7392" y="638.745" width="192.7454" height="10.8973" fill="#fff"/>
    <path d="M557.7285,686.5908h0c-5.0781,0-9.1946-4.1165-9.1946-9.1945h0c0-5.0781,4.1165-9.1946,9.1946-9.1946h0c5.078,0,9.1945,4.1165,9.1945,9.1946h0c0,5.078-4.1165,9.1945-9.1945,9.1945Z" fill="#fff"/>
    <rect x="589.7392" y="671.9476" width="148.4753" height="10.8973" fill="#fff"/>
    <rect x="673.4268" y="390.8469" width="163.459" height="150.7609" fill="#fff"/>
    <g>
      <polygon points="817.7305 457.5436 758.3063 484.4462 698.8821 457.5436 698.8821 497.7273 817.7305 497.7273 817.7305 457.5436" fill="#ffab40"/>
      <polygon points="817.7305 439.4098 698.8821 439.4098 698.8821 450.1368 758.3063 476.4435 817.7305 450.1368 817.7305 439.4098" fill="#ffab40"/>
    </g>
    <g>
      <path d="M1330.0949,487.5451h-328.7917v-15.3512h328.7917v15.3512Zm-326.7484-2.0432h324.7052v-11.2648h-324.7052v11.2648Z" fill="#fff"/>
      <path d="M1330.0949,424.2047h-328.7917v-15.3512h328.7917v15.3512Zm-326.7484-2.0432h324.7052v-11.2648h-324.7052v11.2648Z" fill="#fff"/>
      <path d="M1330.0949,360.8643h-328.7917v-15.3512h328.7917v15.3512Zm-326.7484-2.0432h324.7052v-11.2647h-324.7052v11.2647Z" fill="#fff"/>
    </g>
    <g>
      <rect x="1714.368" y="597.8405" width="124.7567" height="91.8907" fill="#dceceb"/>
      <path d="M1754.6736,666.4703l-27.132-20.4587c-.6694-.5051-1.0651-1.2937-1.0677-2.1328-.0026-.8384,.3865-1.6303,1.0526-2.1399l26.9637-20.6264,3.2607,4.2615-24.1583,18.4806,24.3116,18.3319-3.2306,4.2838Z" fill="#fff"/>
      <path d="M1798.819,666.4703l-3.2305-4.2838,24.3115-18.3319-24.1582-18.4806,3.2606-4.2615,26.9637,20.6264c.6662,.5096,1.0552,1.3015,1.0526,2.1399-.0026,.8391-.3982,1.6277-1.0677,2.1328l-27.132,20.4587Z" fill="#fff"/>
      <rect x="1751.8978" y="641.1027" width="49.6991" height="5.3662" transform="translate(723.0307 2212.5345) rotate(-76.0285)" fill="#fff"/>
    </g>
    <polygon points="1632.9253 1724.5547 1580.3719 1773.5553 1567.2573 1714.8261 1562.1784 1692.0782 1624.985 1676.1978 1628.6095 1698.3256 1632.9253 1724.5547" fill="#e9928b"/>
    <path d="M1628.6095,1698.3256s-13.5402-1.4027-25.9699,1.6345c-9.1295,2.2309-35.3823,14.866-35.3823,14.866l-5.0789-22.7479,62.8066-15.8804,3.6245,22.1278Z" fill="#de6667"/>
    <path d="M1619.2973,1719.1783c-26.5978-.4089-36.1357,21.3999-45.0774,41.6678-8.9417,20.2679-19.7859,67.5505-35.2849,72.3194-15.499,4.769-23.8446,13.1146-23.8446,22.6524h55.9348s35.102-38.5855,53.1543-53.6503c18.0523-15.0649,22.4335-24.8289,22.4335-24.8289,0,0-6.9345-37.2825-13.6905-52.7815,0,0-4.7654-5.2427-13.6252-5.3789Z" fill="#0c1b3c"/>
    <path d="M1623.6975,1758.0643c-19.398,4.0194-26.5376,24.8381-38.4599,59.4128-11.9223,34.5747-35.5725,38.3408-35.5725,38.3408h66.0688s3.6834-12.7127,11.5403-28.803c5.8171-11.913,15.8295-25.5357,18.3654-37.9619,5.9612-29.2096-17.214-31.9685-21.9421-30.9887Z" fill="#408c91"/>
    <path d="M1628.4252,1681.4283c-41.4777,4.5973-70.5733,18.3892-70.5733,18.3892,0,0-14.1189,4.5972-34.5513-38.3926-20.4323-43.0101-92.2521-177.6798-92.2521-177.6798l82.5877,2.6152,62.4413,1.982s33.7134,85.3052,50.0593,121.5727,2.2884,71.5133,2.2884,71.5133Z" fill="#376f92"/>
    <path d="M1557.8519,1623.3594c-25.0297,29.9744-16.6525,64.8525,0,76.4581,0,0-14.1189,4.5972-34.5513-38.3926-20.4323-43.0101-92.2521-177.6798-92.2521-177.6798l82.5877,2.6152,53.921,23.9469s-53.1037,6.8038-65.0363,34.735c-11.9121,27.931,80.3606,48.3634,55.331,78.3172Z" fill="#1b5175"/>
    <g>
      <path d="M2793.1032,1862.5662s.249-150.6597-164.7218-77.3731c0,0-36.2532-129.6948-131.259-123.5654s-104.2,128.8547-104.2,128.8547c0,0-130.1142-66.1386-199.9041,67.9974l600.0849,4.0864Z" fill="#adccc7"/>
      <path d="M2515.2023,1857.2126l-4.0466-.5667c10.9924-78.4631-31.2691-134.7319-31.6981-135.2906l3.2445-2.4862c.4389,.5746,43.726,58.2063,32.5002,138.3435Z" fill="#6eab9c"/>
      <path d="M2516.6908,1809.0768l-3.3003-2.4104c.3891-.5327,38.9672-53.5951,45.5579-86.9513l4.0106,.7941c-6.7682,34.2442-44.6599,86.3667-46.2682,88.5676Z" fill="#6eab9c"/>
      <path d="M2514.8571,1836.876c-30.1298-1.8876-56.7717-37.5425-57.8911-39.0589l3.2884-2.4264c.2634,.3552,26.6379,35.6389,54.8581,37.4068l-.2554,4.0785Z" fill="#6eab9c"/>
      <path d="M2611.4979,1856.6699l5.4912-3.9368c.5208-.3732,52.743-37.3869,108.6607-39.9908l.1916,4.0825c-43.784,2.0392-85.375,25.722-100.4838,35.2737l54.2595-1.8896,.1437,4.0825-68.2629,2.3785Z" fill="#6eab9c"/>
      <path d="M2654.4577,1835.4992l-3.8669-1.3249c8.5879-25.0356,26.7117-48.7124,27.4799-49.7081l3.2365,2.4942c-.1836,.2394-18.4869,24.1537-26.8495,48.5388Z" fill="#6eab9c"/>
      <path d="M2391.9915,1855.9536c-.4051-.3432-40.9187-34.362-86.1113-50.215l1.3528-3.855c45.919,16.1064,86.9873,50.604,87.3983,50.9492l-2.6398,3.1208Z" fill="#6eab9c"/>
      <path d="M2286.637,1844.0433l-1.8676-3.6355c1.1912-.6106,29.7267-14.9033,82.2323-7.5943l-.5627,4.0466c-51.1069-7.1055-79.5186,7.0395-79.802,7.1832Z" fill="#6eab9c"/>
    </g>
    <g opacity=".4">
      <g>
        <path d="M1333.4954,1531.7162l-9.2168-5.1205c-5.8373-3.2429-9.4386-9.4216-9.3362-16.0951,.0171-.751,.0342-1.502,.0342-2.253s-.0171-1.502-.0342-2.253c-.1024-6.6736,3.4989-12.8523,9.3362-16.0952l9.2168-5.1205c7.2881-4.0451,10.8724-12.528,8.7388-20.5841-.0341-.0853-.0512-.1877-.0853-.273-2.1506-8.0391-9.524-13.5862-17.8361-13.4497l-10.5652,.1707c-6.759,.1195-12.9376-3.5843-16.2318-9.4728-.6656-1.1606-1.3312-2.3212-1.9969-3.4649-3.4818-5.8031-3.6013-13.0229-.1195-18.8431l5.4106-8.9949c4.2841-7.1515,3.1576-16.3-2.7309-22.1885-.0682-.0683-.1536-.1536-.2219-.2219-5.8885-5.8884-15.037-7.015-22.1885-2.7309l-8.9949,5.4106c-5.8202,3.4819-13.0399,3.3625-18.8431-.1195-1.1436-.6656-2.3042-1.3313-3.4649-1.9969-5.8884-3.2942-9.5923-9.4728-9.4728-16.2318l.1708-10.5652c.1364-8.3121-5.4107-15.6855-13.4497-17.8361-.0853-.0341-.1878-.0512-.2731-.0853-8.0561-2.1336-16.539,1.4508-20.5841,8.7388l-5.1205,9.2168c-3.2428,5.8373-9.4215,9.4386-16.0952,9.3362-.751-.017-1.502-.0341-2.253-.0341s-1.502,.0171-2.253,.0341c-6.6735,.1024-12.8522-3.4989-16.0951-9.3362l-5.1205-9.2168c-4.0451-7.288-12.5279-10.8724-20.5841-8.7388-.0853,.0341-.1877,.0512-.273,.0853-8.0391,2.1506-13.5863,9.524-13.4497,17.8361l.1707,10.5652c.1194,6.759-3.5843,12.9376-9.4728,16.2318-1.1606,.6656-2.3212,1.3313-3.4648,1.9969-5.8032,3.482-13.0229,3.6014-18.8432,.1195l-8.9949-5.4106c-7.1514-4.2841-16.3-3.1575-22.1885,2.7309-.0683,.0683-.1536,.1536-.2218,.2219-5.8885,5.8885-7.0151,15.037-2.731,22.1885l5.4106,8.9949c3.4819,5.8202,3.3624,13.04-.1194,18.8431-.6657,1.1437-1.3314,2.3043-1.997,3.4649-3.2942,5.8885-9.4728,9.5923-16.2318,9.4728l-10.5652-.1707c-8.3121-.1365-15.6854,5.4106-17.836,13.4497-.0342,.0853-.0513,.1877-.0855,.273-2.1335,8.0561,1.4509,16.539,8.739,20.5841l9.2167,5.1205c5.8373,3.2429,9.4387,9.4216,9.3363,16.0952-.0171,.751-.0342,1.502-.0342,2.253s.0171,1.502,.0342,2.253c.1024,6.6735-3.499,12.8522-9.3363,16.0951l-9.2167,5.1205c-7.2881,4.0451-10.8725,12.528-8.739,20.5841,.0342,.0853,.0513,.1877,.0855,.273,2.1506,8.0391,9.5239,13.5863,17.836,13.4497l10.5652-.1707c6.759-.1195,12.9376,3.5843,16.2318,9.4728,.6656,1.1606,1.3313,2.3212,1.997,3.4649,3.4818,5.8031,3.6013,13.0229,.1194,18.8431l-5.4106,8.9949c-4.2841,7.1515-3.1575,16.3,2.731,22.1885,.0682,.0683,.1535,.1536,.2218,.2219,5.8885,5.8884,15.0371,7.015,22.1885,2.7309l8.9949-5.4106c5.8203-3.4819,13.04-3.3624,18.8432,.1195,1.1436,.6656,2.3042,1.3313,3.4648,1.9969,5.8885,3.2942,9.5922,9.4728,9.4728,16.2318l-.1707,10.5652c-.1366,8.3121,5.4106,15.6855,13.4497,17.8361,.0853,.0341,.1877,.0512,.273,.0853,8.0562,2.1336,16.539-1.4508,20.5841-8.7388l5.1205-9.2168c3.2429-5.8373,9.4216-9.4386,16.0951-9.3362,.751,.017,1.502,.0341,2.253,.0341s1.502-.0171,2.253-.0341c6.6737-.1024,12.8524,3.4989,16.0952,9.3362l5.1205,9.2168c4.0451,7.288,12.528,10.8724,20.5841,8.7388,.0853-.0341,.1878-.0512,.2731-.0853,8.039-2.1506,13.5861-9.524,13.4497-17.8361l-.1708-10.5652c-.1195-6.759,3.5844-12.9376,9.4728-16.2318,1.1607-.6656,2.3213-1.3313,3.4649-1.9969,5.8032-3.4819,13.0229-3.6014,18.8431-.1195l8.9949,5.4106c7.1515,4.2841,16.3,3.1575,22.1885-2.7309,.0683-.0683,.1537-.1536,.2219-.2219,5.8885-5.8885,7.015-15.037,2.7309-22.1885l-5.4106-8.9949c-3.4818-5.8202-3.3623-13.04,.1195-18.8431,.6657-1.1437,1.3313-2.3043,1.9969-3.4649,3.2942-5.8885,9.4728-9.5923,16.2318-9.4728l10.5652,.1707c8.3121,.1366,15.6855-5.4106,17.8361-13.4497,.0341-.0853,.0512-.1877,.0853-.273,2.1336-8.0561-1.4507-16.539-8.7388-20.5841Zm-156.2072,78.9399c-56.5636,0-102.4085-45.8449-102.4085-102.4085s45.8449-102.4086,102.4085-102.4086,102.4086,45.8449,102.4086,102.4086-45.8449,102.4085-102.4086,102.4085Z" fill="#f4d7c9"/>
        <circle cx="1177.2883" cy="1509.101" r="46.226" transform="translate(-561.9283 2308.1749) rotate(-76.7175)" fill="#f4d7c9"/>
      </g>
    </g>
    <path d="M1940.4739,1737.4277l-5.38-2.9889c-3.4073-1.8929-5.5095-5.4995-5.4497-9.395,.01-.4384,.0199-.8768,.0199-1.3151s-.0099-.8768-.0199-1.3151c-.0598-3.8955,2.0424-7.5021,5.4497-9.3951l5.38-2.9889c4.2542-2.3612,6.3464-7.3128,5.101-12.0153-.0199-.0498-.0299-.1096-.0498-.1594-1.2553-4.6926-5.5593-7.9305-10.4113-7.8508l-6.167,.0996c-3.9454,.0698-7.552-2.0922-9.4748-5.5294-.3886-.6775-.7771-1.355-1.1657-2.0225-2.0324-3.3874-2.1021-7.6018-.0697-10.9991l3.1582-5.2505c2.5007-4.1745,1.8432-9.5146-1.594-12.9518-.0398-.0399-.0897-.0897-.1295-.1295-3.4373-3.4372-8.7774-4.0948-12.9519-1.5941l-5.2505,3.1582c-3.3973,2.0325-7.6116,1.9628-10.999-.0697-.6675-.3885-1.345-.7771-2.0226-1.1657-3.4371-1.9228-5.5991-5.5294-5.5294-9.4747l.0997-6.1671c.0796-4.8519-3.1583-9.1559-7.8508-10.4113-.0498-.0199-.1097-.0298-.1595-.0498-4.7024-1.2454-9.6541,.8469-12.0153,5.101l-2.9889,5.38c-1.8929,3.4074-5.4995,5.5095-9.395,5.4498-.4384-.01-.8768-.0199-1.3151-.0199s-.8768,.0099-1.3151,.0199c-3.8955,.0597-7.5021-2.0424-9.3951-5.4498l-2.9889-5.38c-2.3612-4.2541-7.3128-6.3464-12.0153-5.101-.0498,.02-.1096,.0299-.1594,.0498-4.6926,1.2554-7.9305,5.5594-7.8508,10.4113l.0996,6.1671c.0698,3.9453-2.0922,7.5519-5.5294,9.4747-.6775,.3886-1.355,.7772-2.0225,1.1657-3.3874,2.0325-7.6017,2.1022-10.9991,.0697l-5.2505-3.1582c-4.1744-2.5007-9.5146-1.8431-12.9518,1.5941-.0399,.0398-.0897,.0896-.1295,.1295-3.4372,3.4372-4.0948,8.7773-1.5941,12.9518l3.1582,5.2505c2.0325,3.3973,1.9628,7.6117-.0696,10.9991-.3886,.6675-.7772,1.345-1.1658,2.0225-1.9228,3.4372-5.5294,5.5992-9.4747,5.5294l-6.1671-.0996c-4.8519-.0797-9.1559,3.1582-10.4112,7.8508-.02,.0498-.0299,.1096-.0499,.1594-1.2454,4.7025,.8469,9.6541,5.1011,12.0153l5.38,2.9889c3.4073,1.893,5.5095,5.4996,5.4497,9.3951-.01,.4383-.0199,.8767-.0199,1.3151s.0099,.8767,.0199,1.3151c.0598,3.8955-2.0424,7.5021-5.4497,9.395l-5.38,2.9889c-4.2542,2.3612-6.3465,7.3129-5.1011,12.0153,.02,.0498,.0299,.1096,.0499,.1594,1.2553,4.6926,5.5593,7.9305,10.4112,7.8508l6.1671-.0996c3.9453-.0697,7.5519,2.0922,9.4747,5.5294,.3886,.6775,.7772,1.355,1.1658,2.0226,2.0324,3.3873,2.1021,7.6017,.0696,10.999l-3.1582,5.2505c-2.5007,4.1745-1.8431,9.5146,1.5941,12.9519l.1295,.1295c3.4372,3.4372,8.7774,4.0947,12.9518,1.594l5.2505-3.1582c3.3974-2.0325,7.6117-1.9627,10.9991,.0697,.6675,.3885,1.345,.7771,2.0225,1.1657,3.4372,1.9228,5.5992,5.5294,5.5294,9.4748l-.0996,6.167c-.0797,4.852,3.1582,9.156,7.8508,10.4113,.0498,.0199,.1096,.0299,.1594,.0498,4.7025,1.2454,9.6541-.8469,12.0153-5.101l2.9889-5.38c1.893-3.4073,5.4996-5.5095,9.3951-5.4497,.4383,.0099,.8767,.0199,1.3151,.0199s.8767-.01,1.3151-.0199c3.8955-.0598,7.5021,2.0424,9.395,5.4497l2.9889,5.38c2.3612,4.2541,7.3129,6.3464,12.0153,5.101,.0498-.0199,.1097-.0299,.1595-.0498,4.6925-1.2553,7.9304-5.5593,7.8508-10.4113l-.0997-6.167c-.0697-3.9454,2.0923-7.552,5.5294-9.4748,.6776-.3886,1.3551-.7772,2.0226-1.1657,3.3874-2.0324,7.6017-2.1022,10.999-.0697l5.2505,3.1582c4.1745,2.5007,9.5146,1.8432,12.9519-1.594,.0398-.0399,.0897-.0897,.1295-.1295,3.4372-3.4373,4.0947-8.7774,1.594-12.9519l-3.1582-5.2505c-2.0324-3.3973-1.9627-7.6117,.0697-10.999,.3886-.6676,.7771-1.3451,1.1657-2.0226,1.9228-3.4372,5.5294-5.5991,9.4748-5.5294l6.167,.0996c4.852,.0797,9.156-3.1582,10.4113-7.8508,.0199-.0498,.0299-.1096,.0498-.1594,1.2454-4.7024-.8468-9.6541-5.101-12.0153Zm-91.1809,46.0787c-33.0173,0-59.7777-26.7605-59.7777-59.7777s26.7604-59.7777,59.7777-59.7777,59.7777,26.7604,59.7777,59.7777-26.7605,59.7777-59.7777,59.7777Z" fill="#f4d7c9" opacity=".4"/>
    <g>
      <polygon points="1956.8633 439.4098 2227.6594 439.4098 2227.6594 532.6671 2179.3998 532.6671 2204.5724 591.9709 2114.582 532.6671 1956.8633 532.6671 1956.8633 439.4098" fill="#eb908b"/>
      <rect x="1988.9965" y="466.6526" width="210.5344" height="10.2979" fill="#fff"/>
      <rect x="1988.9965" y="495.2578" width="210.5344" height="10.2979" fill="#fff"/>
    </g>
    <rect x="386.9131" y="1852.8423" width="2406.1901" height="29.5839" fill="#aecbc7"/>
    <g>
      <path d="M1663.1078,1238.794v-32.1016l-28.9036-7.4622-22.1462-26.3932,5.7772-15.8017-176.4129-201.5854H704.4246c-7.2218,0-13.0849,5.8633-13.0849,13.0848v22.7996l.1719,.1375c.4471,3.6796,1.9429,7.3592,4.6771,10.6089l195.5157,233.0167c14.2026,16.919,35.1623,26.7026,57.2741,26.7026h693.6854c11.3481,0,19.3091-8.5972,20.4439-18.2946,.1721-1.5476,.1721-3.1294,0-4.7114Z" fill="#b6d5d0"/>
      <g>
        <path d="M1642.667,1229.7037H948.97c-22.0983,0-43.0643-9.7768-57.2689-26.705l-195.5178-233.0089c-11.2122-13.3622-1.7123-33.7348,15.7309-33.7348h693.6969c22.0984,0,43.0645,9.7765,57.2691,26.7049l195.5176,233.0088c11.2122,13.3622,1.7122,33.735-15.7308,33.735Z" fill="#fff"/>
        <path d="M1556.2527,1178.4488h0c-1.3586,0-2.6477-.6-3.5224-1.6394l-134.8037-160.1551c-2.5206-2.9947-.3917-7.5691,3.5224-7.5691h0c1.3585,0,2.6477,.5999,3.5225,1.6394l134.8036,160.1551c2.5205,2.9947,.3918,7.5691-3.5224,7.5691Z" fill="#b2e5e0"/>
        <g>
          <path d="M1029.0079,1111.684h-155.9855c-3.6692,0-7.1487-1.6296-9.4979-4.4481l-76.4856-91.7676c-2.5846-3.101-.3795-7.8095,3.6575-7.8095h155.9855c3.6691,0,7.1486,1.6294,9.4979,4.4481l76.4856,91.7674c2.5847,3.1011,.3795,7.8097-3.6575,7.8097Z" fill="#dceceb"/>
          <path d="M953.2963,1180.0312h-23.0019c-3.658,0-7.1282-1.6197-9.4775-4.4238l-28.2781-33.7519c-2.5962-3.0987-.393-7.8189,3.6497-7.8189h23.0017c3.6582,0,7.1284,1.6197,9.4777,4.4238l28.2781,33.7517c2.5962,3.0989,.393,7.8191-3.6497,7.8191Z" fill="#b2e5e0"/>
          <path d="M1019.7808,1180.0312h-23.0018c-3.658,0-7.1284-1.6197-9.4777-4.4238l-28.2779-33.7519c-2.5964-3.0987-.3931-7.8189,3.6496-7.8189h23.0018c3.658,0,7.1284,1.6197,9.4775,4.4238l28.2781,33.7517c2.5964,3.0989,.393,7.8191-3.6496,7.8191Z" fill="#b2e5e0"/>
          <path d="M1086.2652,1180.0312h-23.0018c-3.658,0-7.1284-1.6197-9.4775-4.4238l-28.2781-33.7519c-2.5962-3.0987-.393-7.8189,3.6496-7.8189h23.0018c3.6582,0,7.1284,1.6197,9.4777,4.4238l28.2779,33.7517c2.5964,3.0989,.3931,7.8191-3.6496,7.8191Z" fill="#b2e5e0"/>
          <g>
            <path d="M1209.8501,1051.3367h-176.2074c-3.6547,0-7.1224-1.6169-9.4715-4.4166l-26.381-31.4395c-2.5997-3.0983-.3971-7.8218,3.6473-7.8218h176.2074c3.6549,0,7.1224,1.6169,9.4717,4.4166l26.3808,31.4397c2.5997,3.0981,.3971,7.8216-3.6473,7.8216Z" fill="#dceceb"/>
            <path d="M1263.7785,1115.606h-176.2075c-3.6548,0-7.1223-1.617-9.4716-4.4167l-26.381-31.4397c-2.5997-3.0981-.3971-7.8216,3.6473-7.8216h176.2074c3.6549,0,7.1224,1.6169,9.4717,4.4166l26.381,31.4396c2.5997,3.0982,.397,7.8218-3.6473,7.8218Z" fill="#dceceb"/>
            <path d="M1317.8376,1180.0312h-176.2074c-3.6549,0-7.1224-1.6169-9.4717-4.4168l-26.381-31.4395c-2.5997-3.0983-.397-7.8218,3.6473-7.8218h176.2075c3.6548,0,7.1223,1.6169,9.4717,4.4166l26.381,31.4397c2.5996,3.0981,.397,7.8218-3.6474,7.8218Z" fill="#dceceb"/>
          </g>
        </g>
        <g>
          <path d="M1395.4863,1178.4488h0c-1.3586,0-2.6477-.6-3.5224-1.6394l-134.8037-160.1551c-2.5206-2.9947-.3917-7.5691,3.5224-7.5691h.0001c1.3584,0,2.6476,.5999,3.5224,1.6394l134.8037,160.1551c2.5204,2.9947,.3917,7.5691-3.5225,7.5691Z" fill="#b2e5e0"/>
          <g>
            <path d="M1295.8613,1043.6188h-19.2003c-2.7696,0-6.8989-2.2453-9.223-5.0151l-6.9735-8.3104c-2.3241-2.7698-1.9626-5.0151,.807-5.0151h19.2002c2.7698,0,6.8991,2.2453,9.2232,5.0151l6.9733,8.3104c2.3241,2.7698,1.9628,5.0151-.8069,5.0151Z" fill="#b2e5e0"/>
            <path d="M1297.18,1039.1752h-19.2003c-2.7697,0-6.8991-2.2453-9.2231-5.015l-6.9734-8.3105c-2.324-2.7698-1.9628-5.0151,.807-5.0151h19.2003c2.7696,0,6.8989,2.2453,9.2229,5.0151l6.9734,8.3105c2.3241,2.7697,1.9628,5.015-.8068,5.015Z" fill="#dceceb"/>
          </g>
        </g>
        <g>
          <path d="M1491.0271,1085.2171h-19.2002c-2.7698,0-6.8991-2.2453-9.2232-5.0149l-6.9733-8.3107c-2.3241-2.7696-1.9628-5.0149,.8069-5.0149h19.2003c2.7696,0,6.8989,2.2453,9.223,5.0149l6.9733,8.3107c2.3241,2.7696,1.9628,5.0149-.8068,5.0149Z" fill="#b2e5e0"/>
          <path d="M1492.3457,1080.7735h-19.2003c-2.7696,0-6.8989-2.2453-9.2229-5.0151l-6.9736-8.3105c-2.324-2.7697-1.9626-5.015,.807-5.015h19.2003c2.7697,0,6.899,2.2453,9.2231,5.015l6.9734,8.3105c2.324,2.7698,1.9628,5.0151-.807,5.0151Z" fill="#dceceb"/>
        </g>
        <g>
          <path d="M1476.5859,1178.4488h0c-1.3584,0-2.6477-.6-3.5224-1.6394l-134.8037-160.1551c-2.5206-2.9947-.3917-7.5691,3.5226-7.5691h0c1.3583,0,2.6475,.5999,3.5223,1.6394l134.8037,160.1551c2.5206,2.9947,.3917,7.5691-3.5225,7.5691Z" fill="#b2e5e0"/>
          <g>
            <path d="M1457.3938,1139.4751h-19.2002c-2.7697,0-6.899-2.2453-9.223-5.0151l-6.9736-8.3105c-2.324-2.7697-1.9628-5.015,.807-5.015h19.2003c2.7697,0,6.8991,2.2453,9.2231,5.015l6.9734,8.3105c2.324,2.7698,1.9628,5.0151-.807,5.0151Z" fill="#b2e5e0"/>
            <path d="M1458.7126,1135.0315h-19.2003c-2.7698,0-6.8991-2.2453-9.2232-5.0151l-6.9733-8.3104c-2.3241-2.7698-1.9628-5.0151,.807-5.0151h19.2002c2.7696,0,6.8989,2.2453,9.223,5.0151l6.9733,8.3104c2.3241,2.7698,1.9629,5.0151-.8067,5.0151Z" fill="#dceceb"/>
          </g>
        </g>
      </g>
    </g>
    <path d="M1685.5542,1381.6853s-11.1152,34.449-50.7541,64.7093c-19.1655,14.6501-45.0124,28.3193-79.5023,36.6557-105.7785,25.5609-190.4707,16.3255-196.6004,17.3471-5.4554,.899,47.301,84.2835,76.9892,134.3225,3.6982,6.2114,7.0287,11.912,9.8484,16.8771,.3474,.613,.6743,1.2055,1.0012,1.798,24.192,43.4597,11.2582,54.391,11.2582,54.391-24.5188,3.0649-58.2322,30.6486-58.2322,30.6486-51.081,13.281-81.7296-66.4052-110.3349-100.1187-28.6053-33.7134-102.1619-133.832-69.4701-187.9779,32.6918-54.1458,323.3629-123.6158,323.3629-123.6158l28.9731,11.1765,54.6566,21.0863,58.8044,22.7003Z" fill="#376f92"/>
    <path d="M1445.535,1651.597c.3474,.613,.6743,1.2055,1.0012,1.798-.4086-.5108-.7356-1.1033-1.0012-1.798Z" fill="#1b5175"/>
    <path d="M1654.9057,1418.3615c-.1635,.3882-7.8052,11.2173-20.1056,28.0331-19.1655,14.6501-45.0124,28.3193-79.5023,36.6557-105.7785,25.5609-190.4707,16.3255-196.6004,17.3471-5.4554,.899,47.301,84.2835,76.9892,134.3225-17.817-21.4336-45.9524-24.2533-66.9977-67.1204-25.5405-52.0209-85.816,1.9615-96.8291-40.9464-11.0131-42.908,31.4455-39.8432,93.7642-67.4269,62.3188-27.5837,72.5349-16.3459,129.0509-27.6042,56.5364-11.2582,47.6609-80.5808,47.6609-80.5808l29.7574-13.1425,41.4164-5.3532s5.8846,11.6872,13.2402,26.4395c12.3003,24.7435,28.6871,58.0892,28.1559,59.3765Z" fill="#1b5175"/>
    <path d="M1472.4344,1728.5569s29.4116,24.5606,30.0851,43.2149c.6736,18.6543-61.9284,81.8853-61.9284,81.8853h-79.4067s-8.5099-13.0313,13.4644-22.3704,24.1717-9.8884,32.412-18.6781c8.2404-8.7898,15.3821-32.4121,28.5666-57.1332,13.1846-24.7211,36.807-26.9185,36.807-26.9185Z" fill="#0c1b3c"/>
    <path d="M1501.5511,765.9373s-18.5852-11.4371-24.7803-24.3038c-6.195-12.8667-21.921-40.9828-22.8741-47.6544s12.3902,.4766,20.0149,13.8198c0,0-5.242-14.2963-14.7729-32.8815-9.5309-18.5853-24.7803-30.0223-20.9679-39.0767,3.8123-9.0543,31.4519,25.2569,34.7877,30.9754s10.0074-.4765,18.5852,3.8124,8.5778-.4766,17.1556,4.7654,15.9598,15.8942,24.8972,62.7497l-32.0454,27.7937Z" fill="#e9928b"/>
    <path d="M1282.4994,1122.8318s-10.078-3.4643-27.0844-19.841c-17.0065-16.3766-27.0845-22.3603-32.7533-24.8798s-14.8019-5.3539-24.25-4.724c-9.448,.6298-14.487-3.7793-12.2824-6.9286,2.2045-3.1494,11.0227-5.3539,11.0227-5.3539,0,0-17.3214,1.5747-12.9123-6.2987,4.409-7.8734,29.2889-4.724,29.2889-4.724,0,0,4.724-5.9838,11.3377-5.9838s5.9837-5.3539,19.211-3.7792,20.1558,9.448,34.013,12.5974c13.8571,3.1493,25.3008,31.9633,25.3008,31.9633l-20.8917,37.9523Z" fill="#e9928b"/>
    <path d="M1303.3064,1081.7003s-22.2498,19.6671-29.0606,40.44l-2.3838,6.1297,12.9405,18.0486,29.9675-57.2106-11.4636-7.4077Z" fill="#93405e"/>
    <path d="M1499.1722,783.7309l-10.727-16.8567s20.9432-24.5189,48.0161-31.6702l6.6607,11.7486-43.9498,36.7783Z" fill="#93405e"/>
    <path d="M1820.1014,1001.2548l-81.4639,43.2146-12.0959,6.4157s-4.3112-2.1659-11.3809-5.8641c-23.0885-12.1164-75.5181-40.6604-102.0802-63.606-12.3411-10.6452-32.8144-36.2061-54.1049-64.7298-38.5559-51.653-79.7272-113.0319-79.7272-113.0319,29.627-45.9729,63.8717-61.2972,63.8717-61.2972,0,0,92.2522,129.7456,106.5549,142.0051,8.3567,7.1718,65.1996,45.9116,110.9682,76.8462,32.5283,22.0056,59.4582,40.0474,59.4582,40.0474Z" fill="#67a4c3"/>
    <path d="M1820.1014,1001.2548l-81.4639,43.2146c-7.233,.1633-15.2017,.3473-23.4768,.5516-23.0885-12.1164-75.5181-40.6604-102.0802-63.606-12.3411-10.6452-32.8144-36.2061-54.1049-64.7298,16.918,8.8064,33.6113,16.5503,43.3167,24.9275,21.127,18.287,14.9973-4.0864,108.9862,8.8473,18.5731,2.554,34.9802,6.334,49.3647,10.7474,32.5283,22.0056,59.4582,40.0474,59.4582,40.0474Z" fill="#4f91b3"/>
    <path d="M1755.0855,988.219s-70.4917,43.2553-70.655,16.019c-.0409-9.1333-1.696-17.0202-3.8618-23.436-4.2909-12.7498-10.6248-19.8194-10.6248-19.8194,0,0-.0205,.0204-.041,.0613-25.1727,26.8278-36.39,18.3278-39.4549,13.2197-3.0648-5.1081-23.8445-48.0161-20.7797-62.3187,3.0649-14.3027,2.3906-22.823-2.0432-31.6702-4.4133-8.8471,2.0432-30.3011,2.0432-30.3011l59.9487-12.6069s55.4943,56.5365,60.2755,75.5998c4.7607,19.0634,25.193,75.2525,25.193,75.2525Z" fill="#e9928b"/>
    <path d="M1834.7718,1173.4793c-18.3891,55.1674-118.4056,239.4063-170.7737,244.6574-21.3519,2.1454-48.8744-11.7895-73.9857-29.0549-36.4719-25.0706-67.856-57.1493-67.856-57.1493,45.9729-32.5897,39.8432-135.3645,39.8432-135.3645,0,0,0,.0203-.0205,.0408-1.0012,.8173-65.7105,54.5545-109.0884,59.6217-43.7458,5.108-185.1174-92.9674-185.1174-92.9674,0,0,31.6702-79.6862,46.9945-76.6214,15.3243,3.0649,116.4645,68.4485,133.7913,69.4701,17.3061,1.0216,115.4837-86.8376,139.9209-111.3565,24.4575-24.5188,120.6327-62.3187,188.0595-63.3403,0,0,43.9296,7.1513,59.2539,39.8431s17.3676,97.0538-1.0216,152.2212Z" fill="#67a4c3"/>
    <path d="M1638.9043,789.3214c-32.0245,3.8429-62.4242,27.5681-52.6011,51.3336,9.8231,23.7656,28.9958,26.6178,41.2738,26.7761,12.278,.1582,16.361,7.4463,20.657,14.1007,4.2959,6.6544,6.1972,2.535,11.5841-8.2387,5.3868-10.7737,17.7449-3.0741,18.0618,11.4548s-2.2181,49.7019,23.7656,50.3357c25.9836,.6337,31.0536-10.14,32.0043-10.14s22.1812-43.4118,20.5968-81.4367c0,0,26.9343-13.9425,21.8643-36.1237s-34.2224-26.6174-51.6505-8.714c0,0-14.5762,.7922-28.2018-8.3972-13.6256-9.1893-32.0043-13.6256-40.5599-8.2387-8.5556,5.3869-8.8725,6.3375-16.7944,7.2881Z" fill="#0c1b3c"/>
    <g>
      <rect x="1634.3907" y="1519.8646" width="27.3609" height="310.8814" fill="#f0d1aa"/>
      <polygon points="1661.7516 1830.746 1648.0712 1830.746 1648.0712 1519.8646 1661.7516 1519.0169 1661.7516 1830.746" fill="#edbf84"/>
      <path d="M1756.3758,1853.7342h-216.6094c0-6.354,2.5769-12.0836,6.738-16.245,4.1614-4.1611,9.907-6.738,16.2611-6.738h170.6112c12.7079,0,22.9991,10.2912,22.9991,22.983Z" fill="#edbf84"/>
      <path d="M1687.2509,1853.7342h-147.4845c0-6.354,2.5769-12.0836,6.738-16.245,4.1614-4.1611,9.907-6.738,16.2611-6.738h85.3057l39.1797,22.983Z" fill="#f0d1aa"/>
      <g>
        <path d="M1916.858,1193.6976c-1.9432,.9036-3.8413,1.8678-5.6941,2.877-.6025,.3315-1.2051,.6628-1.7925,1.0093-.6028,.3313-1.19,.6779-1.7777,1.0393-.5873,.3465-1.1597,.6931-1.7472,1.0695-.5424,.3315-1.0695,.6628-1.5818,1.0094-.6175,.3917-1.2201,.7984-1.8227,1.22-.5572,.3767-1.1147,.7684-1.6719,1.1599-.5573,.3917-1.1147,.7984-1.657,1.2052-1.8377,1.3557-3.6454,2.7868-5.4079,4.278-.6477,.5423-1.2802,1.0846-1.8981,1.6418-2.2294,1.9585-4.3984,4.0221-6.4921,6.1761l-.0602,.0602c-.8587,.8739-1.7025,1.7775-2.5459,2.6815-.1204,.1355-.2562,.2861-.3766,.4216-.8284,.904-1.6419,1.8228-2.4403,2.7567-.8888,1.0243-1.7474,2.0486-2.6059,3.1031-.0453,.0753-.1055,.1355-.1659,.1959-.7983,.979-1.5815,1.9884-2.3498,2.9975-.8284,1.0545-1.6268,2.1239-2.41,3.2237-.0454,.0602-.0905,.1204-.1358,.1807-.7834,1.0695-1.5365,2.1541-2.2896,3.2537-.7983,1.1298-1.5666,2.2896-2.3198,3.4497,0,0,0,.0149-.0301,.0299-.6629,1.0244-1.3256,2.0638-1.9733,3.1183-.1808,.2862-.3614,.5723-.5424,.8737-.1654,.2561-.3313,.5121-.482,.7832-1.2048,1.9583-2.3649,3.9618-3.5097,5.9953-1.3859,2.4704-2.7416,4.986-4.0371,7.5318-.6628,1.2803-1.3104,2.5759-1.9431,3.8713-.6478,1.2955-1.2654,2.606-1.8829,3.9166-1.2353,2.6359-2.4404,5.3023-3.6003,7.9987-.5874,1.3406-1.1598,2.6964-1.7171,4.0671-.5725,1.3708-1.1298,2.7415-1.6723,4.1123-.4818,1.1901-.9488,2.3801-1.4159,3.57-.6023,1.5818-1.205,3.1785-1.8075,4.7903-.5273,1.4009-1.0392,2.8019-1.5365,4.2178-.0603,.1657-.1207,.3313-.1807,.497-.4518,1.2504-.9038,2.5006-1.3256,3.7659-1.0092,2.9073-2.0037,5.8446-2.9675,8.7972-.4369,1.3706-.8889,2.7415-1.3107,4.1273-.4517,1.4462-.9036,2.8922-1.3555,4.3382-.8589,2.7417-1.6723,5.4832-2.4857,8.24-.045,.1655-.0901,.3313-.1354,.4818-.4369,1.4612-.8587,2.9225-1.2654,4.3835-.0152,.0303-.0152,.0452-.0303,.0755-.4066,1.4309-.8284,2.8771-1.2201,4.3081-.5271,1.8529-1.0394,3.7207-1.5513,5.5735-.2864,1.0545-.5725,2.124-.8587,3.1783-.1657,.5876-.3163,1.1751-.4822,1.7625-1.0242,3.7811-2.0185,7.5619-2.9975,11.3127-.964,3.6605-1.8981,7.3058-2.8318,10.921-.3917,1.5365-.7985,3.073-1.1902,4.6095-1.2353,4.8202-2.4553,9.5654-3.6605,14.2501-.3765,1.3708-.723,2.7415-1.0844,4.1124-.6479,2.4853-1.3106,4.9407-1.9582,7.3659-.4067,1.5064-.8134,3.0128-1.2202,4.504-1.4763,5.3477-2.9524,10.5445-4.4889,15.5606-.3465,1.145-.6929,2.2747-1.0396,3.4045-.256,.7984-.5121,1.5967-.768,2.3951-.2111,.6777-.4218,1.3556-.6481,2.0184-.7078,2.1994-1.4309,4.3534-2.184,6.4622-.7834,2.2747-1.5966,4.5041-2.4253,6.6583-.045,.1204-.0901,.2257-.1204,.3313-.3765,.979-.7531,1.9282-1.1448,2.8771-.3313,.8286-.6626,1.6569-1.0092,2.4704-.0905,.2109-.1809,.4369-.2714,.6478-.3914,.9339-.7981,1.8678-1.2049,2.7866-.0301,.0755-.0602,.1507-.1053,.2262-.437,.9941-.8889,1.9731-1.3408,2.9223-.4519,.964-.9037,1.8979-1.3708,2.8167-.3313,.6929-.6779,1.3708-1.0393,2.0336-.1508,.3164-.3162,.6176-.4821,.9188-.4369,.8135-.8736,1.5967-1.3256,2.3801-.2109,.3767-.4217,.7381-.6327,1.0997-.2711,.4669-.5573,.9339-.8435,1.4008-38.412,62.5137-147.6224,60.2542-147.6224,60.2542h-160.4266c-37.6588,0-38.4119-38.4121,4.5192-41.4247,42.9309-3.0128,126.5335-52.7224,164.1923-161.9328,18.2569-52.9332,39.5115-84.4462,56.5783-102.8838,14.5065-15.6811,35.0228-24.403,56.3829-24.403h153.3616c2.5159,0,3.2539,3.4196,.9643,4.4891Z" fill="#f4c8af"/>
        <path d="M1911.1639,1196.5746c-.6025,.3315-1.2051,.6628-1.7925,1.0093-.6028,.3313-1.19,.6779-1.7777,1.0393-.5873,.3465-1.1597,.6931-1.7472,1.0695-.5272,.3315-1.0545,.6628-1.5818,1.0094-.6175,.3917-1.2201,.7984-1.8227,1.22-.5723,.3767-1.1297,.7684-1.6719,1.1599-.5573,.3917-1.1147,.7984-1.657,1.2052-1.8377,1.3557-3.6454,2.7868-5.4079,4.278-.6477,.5423-1.2802,1.0846-1.8981,1.6418-2.2294,1.9585-4.3984,4.0221-6.4921,6.1761l-.0602,.0602c-.8587,.8739-1.7025,1.7775-2.5459,2.6815-.1204,.1355-.2562,.2861-.3766,.4216-.8284,.904-1.6419,1.8228-2.4403,2.7567-.8888,1.0243-1.7474,2.0637-2.6059,3.1031-.0453,.0753-.1055,.1355-.1659,.1959-.7834,.9941-1.5815,1.9884-2.3498,2.9975-.8133,1.0696-1.6268,2.1391-2.41,3.2237-.0454,.0602-.0905,.1204-.1358,.1807-.7682,1.0695-1.5365,2.1541-2.2896,3.2537-.7833,1.1298-1.5514,2.2896-2.3198,3.4497,0,0,0,.0149-.0301,.0299-.6479,1.0244-1.3105,2.0638-1.9733,3.1183-.1808,.2862-.3614,.5723-.5424,.8737-.1503,.2561-.3163,.5121-.4668,.7832h-.0152c-1.2048,1.9583-2.3649,3.9618-3.5097,5.9953-1.3859,2.4704-2.7416,4.986-4.0371,7.5318-.6628,1.2803-1.3104,2.5607-1.9431,3.8713-.6327,1.2955-1.2654,2.591-1.8829,3.9166-1.2353,2.6359-2.4404,5.3023-3.6003,7.9987-.5723,1.3406-1.1598,2.6964-1.7171,4.0671-.5725,1.3708-1.1298,2.7415-1.6723,4.1123-.4818,1.1901-.9488,2.3801-1.4159,3.57-.6023,1.5818-1.205,3.1785-1.8075,4.7903-.5122,1.4009-1.0392,2.8019-1.5365,4.2178-.0603,.1657-.1207,.3313-.1807,.497-.4518,1.2504-.8888,2.5006-1.3256,3.7659-1.0092,2.9073-2.0037,5.8446-2.9675,8.7972-.4369,1.3706-.8739,2.7415-1.3107,4.1273-.4517,1.4462-.9036,2.8922-1.3555,4.3382-.8438,2.7417-1.6723,5.4983-2.4857,8.24-.045,.1655-.0901,.3313-.1354,.4818-.4218,1.4612-.8436,2.9225-1.2654,4.3835-.0152,.0303-.0152,.0452-.0303,.0755-.4066,1.4309-.8133,2.8621-1.2201,4.3081-.5271,1.8529-1.0394,3.7207-1.5513,5.5735-.2864,1.0695-.5725,2.124-.8587,3.1783-.1657,.5876-.3163,1.1751-.4822,1.7625-1.0091,3.7811-2.0185,7.5619-2.9975,11.3127-.964,3.6605-1.8981,7.3058-2.8318,10.921-.3917,1.5365-.7834,3.0881-1.1902,4.6095-1.2353,4.8202-2.4553,9.5654-3.6605,14.2501-.3614,1.3858-.723,2.7566-1.0844,4.1124-.6479,2.4853-1.3106,4.9407-1.9582,7.3659-.4067,1.5064-.8134,3.0128-1.2202,4.504-1.4763,5.3477-2.9524,10.5445-4.4889,15.5606-.3465,1.145-.6929,2.2747-1.0396,3.4045-.256,.7984-.5121,1.5967-.768,2.3951-.2111,.6777-.4218,1.3556-.6481,2.0184-.7078,2.1994-1.4309,4.3534-2.184,6.4622-.7834,2.2747-1.5966,4.5041-2.4253,6.6583-.045,.1204-.0901,.2257-.1204,.3313-.3765,.979-.7531,1.9282-1.1448,2.8771-.3313,.8286-.6626,1.6569-1.0092,2.4704-.0905,.2109-.1809,.4369-.2714,.6478-.3914,.9339-.7981,1.8678-1.2049,2.7866-.0301,.0755-.0602,.1507-.1053,.2262-.437,.9941-.8889,1.9731-1.3408,2.9223-.4519,.964-.9037,1.8979-1.3708,2.8167-.3313,.6929-.6779,1.3708-1.0393,2.0336-.1508,.3164-.3162,.6176-.4821,.9188-.4369,.8135-.8736,1.5967-1.3256,2.3801-.482,.8587-.9793,1.6872-1.4762,2.5005-38.412,62.5137-147.6224,60.2542-147.6224,60.2542h-150.2737c-10.7252-8.3754-5.4983-21.1492,22.9869-23.1527,42.931-3.0128,135.6921-63.6283,173.3509-172.8387,18.2571-52.9333,39.5115-84.4461,56.5787-102.8839,14.5061-15.681,35.0226-24.4029,56.3825-24.4029h110.8526Z" fill="#f7dfd3"/>
        <path d="M1864.5874,1243.5125c-1.2048,1.9583-2.3649,3.9618-3.5097,5.9953-1.3859,2.4704-2.7416,4.986-4.0371,7.5318-.6628,1.2803-1.3104,2.5607-1.9431,3.8713-.6327,1.2955-1.2654,2.591-1.8829,3.9166-1.2353,2.6359-2.4404,5.3023-3.6003,7.9987-.5723,1.3406-1.1598,2.6964-1.7171,4.0671-.5725,1.3708-1.1298,2.7415-1.6723,4.1123-.4818,1.1901-.9488,2.3801-1.4159,3.57-.6023,1.5818-1.205,3.1785-1.8075,4.7903-.5122,1.4009-1.0392,2.8019-1.5365,4.2178-.0603,.1657-.1207,.3313-.1807,.497-.4518,1.2504-.8888,2.5006-1.3256,3.7659-1.0092,2.9073-2.0037,5.8446-2.9675,8.7972-.4369,1.3706-.8739,2.7415-1.3107,4.1273-.4517,1.4462-.9036,2.8922-1.3555,4.3382-.8438,2.7417-1.6723,5.4983-2.4857,8.24-.045,.1655-.0901,.3313-.1354,.4818-.4218,1.4612-.8436,2.9225-1.2654,4.3835-.0152,.0303-.0152,.0452-.0303,.0755-.4066,1.4309-.8133,2.8621-1.2201,4.3081-.5271,1.8529-1.0394,3.7207-1.5513,5.5735-.2864,1.0695-.5725,2.124-.8587,3.1783-.1657,.5876-.3163,1.1751-.4822,1.7625-1.0091,3.7811-2.0185,7.5619-2.9975,11.3127-.964,3.6605-1.8981,7.3058-2.8318,10.921-.3917,1.5365-.7834,3.0881-1.1902,4.6095-1.2353,4.8202-2.4553,9.5654-3.6605,14.2501-.3614,1.3858-.723,2.7566-1.0844,4.1124-.6479,2.4853-1.3106,4.9407-1.9582,7.3659-.4067,1.5064-.8134,3.0128-1.2202,4.504-1.4763,5.3477-2.9524,10.5445-4.4889,15.5606-.3465,1.145-.6929,2.2747-1.0396,3.4045-.256,.7984-.5121,1.5967-.768,2.3951-.2111,.6777-.4218,1.3556-.6481,2.0184-.7078,2.1994-1.4309,4.3534-2.184,6.4622-.7834,2.2747-1.5966,4.5041-2.4253,6.6583-.045,.1204-.0901,.2257-.1204,.3313-.3765,.979-.7531,1.9282-1.1448,2.8771-.3313,.8286-.6626,1.6569-1.0092,2.4704-.0905,.2109-.1809,.4369-.2714,.6478-.3914,.9339-.7981,1.8678-1.2049,2.7866-.0301,.0755-.0602,.1507-.1053,.2262-.437,.9941-.8889,1.9731-1.3408,2.9223-.4519,.964-.9037,1.8979-1.3708,2.8167-.3313,.6929-.6779,1.3708-1.0393,2.0336-.1508,.3164-.3162,.6176-.4821,.9188-.4369,.8135-.8736,1.5967-1.3256,2.3801-.2109,.3767-.4217,.7381-.6327,1.0997-.2711,.4669-.5573,.9339-.8435,1.4008-38.412,62.5137-147.6224,60.2542-147.6224,60.2542h-52.7977c5.5434-.3315,108.1267-5.2599,144.7088-158.5904,24.6974-103.518,91.8035-109.6759,131.3903-117.7499Z" fill="#f4c8af"/>
      </g>
    </g>
    <path d="M759.0231,1518.3707v-104.9961c0-32.725-26.5289-59.2539-59.2539-59.2539h-74.9184v499.341h252.6801v-216.5833c0-32.725-26.5289-59.2538-59.2539-59.2538h-.0001c-32.725,0-59.2538-26.5289-59.2538-59.2539Z" fill="#dceceb"/>
    <g>
      <path d="M743.0455,1726.6501c-22.8555-43.617-50.4359-74.7386-95.2559-109.9524-44.8201-35.2138-103.5351-35.3627-127.5075-46.721-23.9725-11.3583-24.5895,20.0835-17.1433,49.6181,7.4463,29.5346-15.1578,165.5052,121.0302,208.7382,136.188,43.2329,135.7517-69.4785,118.8765-101.6829Z" fill="#f2d6c8"/>
      <path d="M657.0132,1755.9806c-1.0077,0-1.8836-.7443-2.0233-1.7679-6.5228-48.1338,17.3396-95.697,17.583-96.1719,.5088-1.0056,1.742-1.4087,2.7456-.8919,1.0057,.5108,1.4067,1.74,.8959,2.7456-.2374,.4649-23.5231,46.9266-17.1739,93.7675,.1516,1.1194-.6326,2.149-1.75,2.3006-.0937,.012-.1875,.018-.2773,.018Z" fill="#f5b89b"/>
      <path d="M657.3743,1761.364c-.3192,0-.6445-.0758-.9477-.2334-40.5855-21.3223-111.125-13.6822-111.8294-13.6023-1.1254,.1077-2.135-.6805-2.2607-1.8018-.1257-1.1214,.6804-2.1331,1.8018-2.2608,2.9451-.3292,72.501-7.8537,114.1878,14.0453,.9997,.5248,1.3848,1.7619,.86,2.7596-.3671,.6963-1.0775,1.0934-1.8118,1.0934Z" fill="#f5b89b"/>
      <path d="M670.1147,1800.5227c-.9219,0-1.758-.6265-1.9834-1.5623-29.2499-120.7905-145.1517-206.1436-146.319-206.9916-.9119-.6624-1.1154-1.9395-.4509-2.8533,.6624-.9159,1.9374-1.1214,2.8533-.451,1.1793,.856,118.2883,87.101,147.8873,209.3341,.2654,1.0975-.407,2.2009-1.5045,2.4663-.1616,.0399-.3232,.0578-.4828,.0578Z" fill="#f5b89b"/>
      <path d="M615.3762,1687.2348c-.4469,0-.8979-.1457-1.275-.447-26.4743-21.1806-90.4213-15.6555-91.0618-15.5976-1.1433,.1277-2.119-.7283-2.2208-1.8497-.1017-1.1254,.7263-2.1191,1.8497-2.2208,2.6937-.2395,66.2276-5.7267,93.9869,16.4756,.88,.7063,1.0237,1.9913,.3193,2.8733-.4051,.5028-.9977,.7662-1.5983,.7662Z" fill="#f5b89b"/>
      <path d="M594.1377,1660.3115c-.7961,0-1.5543-.4689-1.8836-1.251-8.2946-19.7221-3.9228-53.0783-3.7333-54.489,.1497-1.1174,1.1493-1.8996,2.2987-1.752,1.1174,.1517,1.9015,1.1793,1.7519,2.2987-.0459,.3332-4.4117,33.6675,3.4499,52.3579,.437,1.0396-.0518,2.2388-1.0914,2.6758-.2594,.1078-.5268,.1596-.7922,.1596Z" fill="#f5b89b"/>
    </g>
    <g>
      <path d="M2691.6978,992.2033c-2.0841,2.6971-4.495,4.7403-7.1513,6.191-22.0875,12.1573-61.7467-14.3027-79.8702-13.4444-20.3098,.9807-29.9743,27.5632-77.8473,8.7042-47.8527-18.8592-36.7375-93.2943-33.836-121.348,2.9013-28.0332-14.5071-42.0498-44.4814-41.0894-29.9539,.9807-61.5832-15.4674-47.9548-62.8501,13.6488-47.3622-24.7641-72.208-47.7505-63.8104-22.9864,8.4182-10.6452-31.8949-10.6452-31.8949,0,0,19.6151-27.9515,58.3957-23.8854,12.1573,1.2668,20.9228,5.2716,27.6041,10.8291,0,0,.0205,0,.0409,.0409,1.5529,1.3077,3.0035,2.6766,4.3317,4.1274,.0204,.0408,.0612,.0612,.0817,.1021,11.197,12.1573,15.5899,29.1366,22.68,42.1316,11.6056,21.27,30.9345,19.8194,60.9089,10.6453,29.9743-9.1946,90.3928-4.9447,103.4492,45.1351,13.0561,50.1002-21.7401,108.5981,40.6195,123.105,62.3594,14.4866,50.754,82.1791,31.425,107.3109Z" fill="#0c1b3c"/>
      <path d="M2344.5229,668.6634s18.0733,11.9189,16.0177,36.0972c0,0,.0307,6.9755-7.9273,3.4054-7.9581-3.57-14.4062-29.7688-13.7093-35.4161,.697-5.6473,3.6234-4.7563,5.6189-4.0865Z" fill="#3fb8a9"/>
      <path d="M2336.8895,776.6008c-27.7267,24.1716-41.3143,22.4756-49.4054,10.6249-3.0241-4.4134-11.3809-15.3447-20.7185-27.3181-15.6511-20.1463-33.9791-43.2553-33.9791-43.2553,0,0-29.014-1.839-29.6474-24.2737-.1225-4.2909,.6948-8.5816,2.4111-12.7498,7.1513-17.6331,29.8518-32.8757,61.3993-35.4911,39.0054-3.2282,74.4556,16.1212,84.774,43.1941,10.2978,27.0729,12.8723,65.0975-14.834,89.269Z" fill="#0c1b3c"/>
      <path d="M2266.7656,759.9076c-15.6511-20.1463-33.9791-43.2553-33.9791-43.2553,0,0-29.014-1.839-29.6474-24.2737-.1225-4.2909,.6948-8.5816,2.4111-12.7498,5.7619-9.0107,16.591-16.775,36.9008-14.2209,43.5211,5.4758,23.3134,78.1743,34.0609,85.8159,3.9434,2.8197-1.3894,5.905-9.7463,8.6838Z" fill="#1b5175" opacity=".52"/>
      <g>
        <path d="M2112.6106,1207.3403s-15.4021,4.5126-22.9613,10.2275c-7.5591,5.7149-25.9509,14.555-26.3039,17.5421-.3531,2.9871,15.4417-1.6521,21.6646-4.0654,6.2228-2.4133,5.2452,3.5288-2.5065,10.873-7.7518,7.3442-10.8845,10.5534-19.8101,17.3459-8.9256,6.7924-9.9736,9.8351-6.5397,11.067,3.434,1.2319,6.5902-1.0109,6.5902-1.0109,0,0-8.0146,6.0741-4.8375,9.4785,3.1772,3.4043,12.9816-3.835,12.9816-3.835,0,0-2.7823,4.9028,3.9831,4.7387s9.0515-3.1981,17.0401-5.558c7.9887-2.36,32.0524-27.7389,37.6403-36.578,5.588-8.839,8.4196-16.4894,8.4196-16.4894l-25.3605-13.736Z" fill="#ffac95"/>
        <path d="M2278.4458,998.4021s14.7422,73.6581-21.2655,114.8789c-36.0077,41.2209-118.1732,116.6402-118.1732,116.6402l-30.2251-23.6825s73.9827-97.8916,84.1305-135.4812c2.1622-8.0093,4.1836-23.4117,4.1836-23.4117l81.3497-48.9437Z" fill="#f5911f"/>
      </g>
      <path d="M2174.0942,1196.5745s-2.2915-8.494,1.1139-15.9478,19.581,14.8516,19.581,14.8516l4.2568,18.5594-24.9517-17.4632Z" fill="#ffac95"/>
      <g>
        <path d="M2573.1896,1702.1592c13.799,14.8503,43.1198,70.7935,43.1198,70.7935l-21.7116,15.7669s-24.8503-37.3333-30.008-35.0952c-5.1576,2.2382-.0921,56.9538-7.0003,61.9705-6.9082,5.0167-52.7985,38.3421-52.7985,38.3421,0,0-1.952-19.2932,6.9828-37.0867,7.9129-15.755,16.069-48.2372-4.6303-97.2068-2.6785-6.3453-5.8357-12.976-9.545-19.869l47.6466-44.3985s5.8803,13.2449,13.7297,26.6276c4.3456,7.3956,9.2903,14.8687,14.2148,20.1556Z" fill="#1b5175"/>
        <path d="M2497.5985,1699.7745l47.6466-44.3985s5.8803,13.2449,13.7297,26.6276l-51.8313,37.6399c-2.6785-6.3453-5.8357-12.976-9.545-19.869Z" fill="#e9928b"/>
      </g>
      <path d="M2583.8557,1644.6908l-105.6967,72.2081s-55.3104-67.9786-104.3481-130.4811c-32.7123-41.723-62.6458-80.9736-71.4112-95.9505-17.6944-30.199-42.9694-149.5855-52.0412-194.3324-2.1455-10.6453-3.3919-17.0814-3.3919-17.0814l12.9542-36.3493,25.1523-70.5734,1.8592-5.2306s18.144-9.3581,38.3517-14.3641c5.3737-1.3484,10.9108-2.3701,16.2641-2.84,16.4889-1.4098,31.5068,2.5132,36.2062,19.2677,.2656,.9808,.5108,2.0228,.7151,3.0854,.9399,5.0058,1.9615,11.4216,3.0444,18.8795,9.1129,63.4425,21.924,203.4043,25.9491,219.1372,4.5156,17.5514,176.3928,234.6249,176.3928,234.6249Z" fill="#5f6386"/>
      <path d="M2373.8109,1586.4178c-32.7123-41.723-62.6458-80.9736-71.4112-95.9505-17.6944-30.199-42.9694-149.5855-52.0412-194.3324,2.5131-10.0119,4.4338-16.6524,5.394-18.0827,5.4351-8.1729,125.7613-87.1235,125.7613-87.1235,0,0,5.0059,70.5733-18.8386,115.6267-23.8446,45.0534-44.2769,78.0722-25.1932,126.5991,19.0635,48.5473-21.8013,76.4783,10.8905,103.7147,18.9,15.7533,24.2737,35.6137,25.4384,49.5486Z" fill="#4a4e73"/>
      <g>
        <path d="M2169.2155,1771.3172c2.4394,20.1244-6.7081,82.6198-6.7081,82.6198h-26.8325s1.8295-44.8103-3.659-46.0299c-5.4885-1.2197-33.5407,46.0299-42.0783,46.0299h-65.2519s9.7573-16.7581,27.4424-25.9055c15.6604-8.0986,41.3465-29.589,53.3724-81.3758,1.5612-6.7081,2.9028-13.9285,3.9517-21.6856l64.642-7.9278s-3.0248,14.1725-4.5371,29.6134c-.8295,8.5377-1.2197,17.4899-.3416,24.6615Z" fill="#1b5175"/>
        <path d="M2109.4522,1724.9701l64.642-7.9278s-3.0248,14.1725-4.5371,29.6134h-64.0566c1.5612-6.7081,2.9028-13.9285,3.9517-21.6856Z" fill="#e9928b"/>
      </g>
      <path d="M2230.2091,1137.245s-92.8202,217.8695-119.8927,308.1113c-27.0726,90.2418-68.326,284.9063-68.326,284.9063h141.8086s55.4342-264.2796,79.9285-306.8221c24.4942-42.5426,116.0252-197.2429,101.8443-252.6771-14.1809-55.4343-135.3627-33.5184-135.3627-33.5184Z" fill="#5f6386"/>
      <path d="M2381.5138,1190.9287l-43.0169,111.6493-139.4442-88.5403,86.0204-41.9069,40.2109-19.5947,11.2582-5.4963,5.0059,2.6563,36.2062,19.2677c.2656,.9808,.5108,2.0228,.7151,3.0854,.9399,5.0058,1.9615,11.4216,3.0444,18.8795Z" fill="#4a4e73"/>
      <path d="M2308.8484,843.395s-33.5184,14.1003-61.8801,52.7754c-28.3618,38.6751-61.8801,110.5861-64.4585,124.2636-2.5783,13.6775,22.1088,122.2951,22.0131,150.3294-.0956,28.0342,131.9021,17.6788,169.288-.3695,0,0-14.6849-102.7641-14.6849-116.9449s1.2891-109.5794-6.4459-153.4111c-7.735-43.8318-43.8317-56.6429-43.8317-56.6429Z" fill="#ffab40"/>
      <path d="M2300.8514,944.4748s-5.2943,35.2716,0,61.8337c5.2942,26.5621-36.1289,10.3982-50.4929,64.453-14.3641,54.0548,108.5859,27.8402,108.5859,27.8402,0,0,33.8947-52.1095,34.137-60.9636,.2424-8.854-92.23-93.1633-92.23-93.1633Z" fill="#f5911f"/>
      <path d="M2308.8563,843.3943s-64.791,66.6299-59.0905,49.0786c3.1263-9.6645-2.3293-32.7736-7.8664-51.5918-4.536-15.3652-9.1129-27.8698-9.1129-27.8698,0,0,12.4434-12.6681,25.4793-23.4767,13.8122-11.4626,28.2783-20.8002,29.2183-10.6861,1.8388,19.6764,21.3722,64.5458,21.3722,64.5458Z" fill="#ffac95"/>
      <g>
        <rect x="2153.7466" y="969.6663" width="173.3108" height="299.0605" transform="translate(281.7764 2679.8977) rotate(-65.0936)" fill="#3fb8a9"/>
        <rect x="2171.7996" y="987.7192" width="137.2043" height="262.9545" transform="translate(281.7769 2679.8981) rotate(-65.0936)" fill="#fff"/>
        <polygon points="2116.5974 1139.4971 2214.4217 1070.7615 2225.0363 1189.8476 2116.5974 1139.4971" fill="#3fb8a9"/>
        <polygon points="2220.0044 1187.7367 2295.6663 1134.5733 2303.8761 1226.6801 2220.0044 1187.7367" fill="#3fb8a9"/>
        <circle cx="2263.0205" cy="1091.178" r="17.7877" transform="translate(-237.1349 843.8843) rotate(-20.0935)" fill="#3fb8a9"/>
      </g>
      <path d="M2224.5314,1162.2262s-12.6092,1.7796-21.5259,4.0725c-8.9168,2.2928-26.4955,1.019-28.5336,5.0952-2.0382,4.0763,19.7425,7.643,25.0297,8.1525s-8.2153,7.9721-15.8582,10.1004c-7.643,2.1283-13.7573,5.1855-5.8596,12.3189,7.8977,7.1334,20.1264,17.8335,25.2217,18.5978s30.0622-18.0883,43.8195-32.1003c13.7573-14.0121-22.2936-26.237-22.2936-26.237Z" fill="#ffac95"/>
      <path d="M2310.1375,867.1641c-24.3169,18.613-14.8254,66.3922-2.5783,97.3322,12.2471,30.9401,47.0547,87.6635,44.4763,92.8202-2.5783,5.1567-131.5807,103.0336-131.5807,103.0336l26.5135,33.296s122.471-61.5578,152.7665-83.4737c30.2954-21.9159,32.8738-45.7655,23.8496-76.7055-9.0242-30.9401-61.2355-206.267-113.4469-166.3028Z" fill="#ffab40"/>
      <path d="M2133.4461,1730.7913l-6.038-1.0576c1.9475-11.13,47.8046-272.8979,55.8718-297.5225,8.0273-24.5049,71.1103-183.8635,73.792-190.6357l5.6988,2.2587c-.6565,1.6562-65.6969,165.9552-73.6644,190.2845-7.9315,24.2096-55.1833,293.9509-55.6602,296.6726Z" fill="#4a4e73"/>
      <path d="M2537.2669,1676.7931c-.9598-1.2032-96.5131-121.0139-146.5704-182.9476-50.5203-62.5143-69.2087-150.2618-69.3923-151.1397l6.002-1.2491c.1796,.864,18.5867,87.1988,68.1592,148.5358,50.0693,61.9496,145.6346,181.7743,146.5943,182.9775l-4.7928,3.8231Z" fill="#4a4e73"/>
      <path d="M2691.6978,992.2033c-2.0841,2.6971-4.495,4.7403-7.1513,6.191,21.4949-25.6017,5.7212-59.5196-49.4464-58.8248-55.1674,.6743-70.1444-46.9945-37.4526-126.0064,32.6918-79.0121-49.712-85.1419-84.447-67.4269-34.7351,17.7148-70.1647,1.3689-68.7958-36.9622,.9195-25.6426-6.661-39.1484-11.7895-45.2986,11.197,12.1573,15.5899,29.1366,22.68,42.1316,11.6056,21.27,30.9345,19.8194,60.9089,10.6453,29.9743-9.1946,90.3928-4.9447,103.4492,45.1351,13.0561,50.1002-21.7401,108.5981,40.6195,123.105,62.3594,14.4866,50.754,82.1791,31.425,107.3109Z" fill="#1b5175" opacity=".52"/>
      <path d="M2276.614,786.5923s-9.7054,35.5727-34.7146,54.2888c-4.536-15.3652-9.1129-27.8698-9.1129-27.8698,0,0,12.4434-12.6681,25.4793-23.4767l18.3482-2.9423Z" fill="#e9928b"/>
      <path d="M2234.7212,694.4155s-17.4038,43.1871-33.8407,51.5667c-16.4369,8.3796-5.479,10.3134,0,19.6598,5.4789,9.3465-15.4701,38.3528,2.5783,51.5668,18.0484,13.214,59.9464-8.3796,73.1603-30.6178,0,0,22.8828,.9669,28.3618-16.4369,5.4789-17.4038-12.2471-28.3617-22.5605-20.6267-10.3133,7.735-11.6025-8.3796-16.1146-32.5515s-29.3844-27.7035-31.5846-22.5604Z" fill="#ffac95"/>
    </g>
    <g>
      <path d="M386.9131,1852.8423c-3.8891-40.8096,33.0633-102.2319,151.6934-62.2723,0,0,29.9698-93.6554,112.3865-90.5335,82.4168,3.1218,108.6403,80.1933,108.6403,80.1933,0,0,110.7215-13.3858,126.5389,80.2696,0,0-493.6402,51.304-499.2591-7.6571Z" fill="#adccc7"/>
      <g>
        <path d="M632.9692,1859.8844l-4.0346-.6505c10.6871-66.3374-30.4231-113.9324-30.8401-114.4053l3.0689-2.7017c.429,.4888,42.7962,49.5365,31.8058,117.7575Z" fill="#6eab9c"/>
        <path d="M634.332,1819.2511l-3.1287-2.6299c.3792-.4509,37.9636-45.4022,44.3726-73.5964l3.9867,.9058c-6.6305,29.1601-43.6582,73.4489-45.2306,75.3205Z" fill="#6eab9c"/>
        <path d="M632.6001,1842.8541c-29.3496-1.5963-55.361-31.8677-56.4544-33.1547l3.1167-2.6459c.2554,.3033,25.9795,30.2196,53.5612,31.7221l-.2235,4.0785Z" fill="#6eab9c"/>
      </g>
      <path d="M725.2003,1862.0454l-2.6698-3.0928c2.121-1.8338,52.2881-44.9253,78.3753-45.6496l.1118,4.0864c-24.6366,.6824-75.3085,44.217-75.8173,44.656Z" fill="#6eab9c"/>
      <path d="M823.3196,1853.599c-.4011-.0239-40.3739-2.4502-72.7385-10.8068l1.0216-3.9548c31.9735,8.2528,71.5612,10.6592,71.9563,10.6831l-.2394,4.0785Z" fill="#6eab9c"/>
      <path d="M525.372,1859.5731c-26.4164-21.9648-82.1366-39.5119-82.6953-39.6855l1.2172-3.9029c2.3166,.7243,57.057,17.9681,84.092,40.4477l-2.6139,3.1407Z" fill="#6eab9c"/>
      <path d="M504.8139,1842.6087l-4.0865-.1198c.6525-22.284-9.0549-39.7932-9.1526-39.9668l3.5597-2.0093c.423,.7502,10.3638,18.6305,9.6794,42.0959Z" fill="#6eab9c"/>
    </g>
    <g>
      <polygon points="1698.8224 523.3021 979.6027 535.5615 965.3 523.3021 965.3 286.9676 1698.8224 286.9676 1713.125 299.227 1698.8224 523.3021" fill="#b6d5d0"/>
      <polygon points="1698.8224 265.0028 979.6027 277.2622 965.3 265.0028 965.3 211.8786 1698.8224 211.8786 1713.125 224.138 1698.8224 265.0028" fill="#b6d5d0"/>
      <rect x="979.6027" y="299.227" width="733.5223" height="236.3345" fill="#dceceb"/>
      <rect x="979.6027" y="224.138" width="733.5223" height="53.1242" fill="#edf6f5"/>
      <g>
        <circle cx="1120.0138" cy="250.7001" r="9.9371" fill="#67a4c3"/>
        <circle cx="1073.2511" cy="250.7001" r="9.9371" fill="#eb908b"/>
        <circle cx="1026.4883" cy="250.7001" r="9.9371" fill="#ffaa3f"/>
      </g>
      <g>
        <path d="M1565.6714,310.7371c-52.164,0-94.4384,42.2744-94.4384,94.4383s42.2744,94.4384,94.4384,94.4384,94.4383-42.2744,94.4383-94.4384-42.2744-94.4383-94.4383-94.4383Zm0,155.2247c-33.5704,0-60.7864-27.216-60.7864-60.7864s27.216-60.7863,60.7864-60.7863,60.7863,27.216,60.7863,60.7863-27.216,60.7864-60.7863,60.7864Z" fill="#b2e5e0"/>
        <path d="M1654.874,346.5345c-17.0814-17.0814-40.6603-27.6245-66.7321-27.6245-52.1639,0-94.4385,42.2745-94.4385,94.4384,0,6.0276,.5722,11.9326,1.655,17.6536,8.2548,43.7252,46.6472,76.7848,92.7835,76.7848,17.2654,0,33.4274-4.6176,47.3418-12.6884,28.1559-16.3459,47.0966-46.831,47.0966-81.75,0-26.1126-10.5839-49.7325-27.7063-66.8139Zm-36.2675,119.4068c-8.9697,5.2102-19.3698,8.1934-30.4646,8.1934-29.6883,0-54.4319-21.2905-59.7238-49.4668-.6947-3.6574-1.0625-7.4578-1.0625-11.3195,0-33.5704,27.2159-60.7863,60.7863-60.7863,16.7546,0,31.9358,6.7835,42.9489,17.7557,11.013,11.0131,17.8374,26.2352,17.8374,43.0306,0,22.4756-12.1982,42.0906-30.3217,52.5929Z" fill="#3fb8a9"/>
        <path d="M1682.5803,413.3484c0,34.919-18.9407,65.4041-47.0966,81.75l-16.8772-29.1571c18.1235-10.5023,30.3217-30.1173,30.3217-52.5929,0-16.7954-6.8244-32.0175-17.8374-43.0306l23.7832-23.7833c17.1224,17.0814,27.7063,40.7013,27.7063,66.8139Z" fill="#fff"/>
        <path d="M1635.4837,495.0984c-13.9144,8.0708-30.0764,12.6884-47.3418,12.6884-46.1363,0-84.5287-33.0596-92.7835-76.7848l33.0597-6.3341c5.2919,28.1763,30.0355,49.4668,59.7238,49.4668,11.0948,0,21.4949-2.9832,30.4646-8.1934l16.8772,29.1571Z" fill="#ffc945"/>
      </g>
      <rect x="1018.5945" y="345.5131" width="328.7916" height="15.3512" fill="#fff"/>
      <rect x="1018.5945" y="408.8535" width="328.7916" height="15.3512" fill="#fff"/>
      <rect x="1018.5945" y="472.1939" width="328.7916" height="15.3512" fill="#fff"/>
    </g>
    <path d="M2306.0085,834.9739s-22.2154,25.0728-56.8173,38.8647l-4.6112,25.6523s32.3732-9.9195,64.2763-56.0966l-2.8478-8.4204Z" fill="#f5911f"/>
    <path d="M1458.7004,1853.6571h-38.8212s31.29-15.6865,41.5401-47.8239c7.3902-23.1711,19.4581-45.4136,34.4738-39.92,15.0158,5.4936,2.6381,31.0196-5.3299,45.4135-11.3534,20.5094-31.8628,42.3304-31.8628,42.3304Z" fill="#408c91"/>
    <path d="M704.9774,1354.1212h-6.1297v-248.1596c0-21.0989,17.166-38.2649,38.2648-38.2649h25.301v6.1298h-25.301c-17.7187,0-32.1351,14.4164-32.1351,32.1351v248.1596Z" fill="#3fb8a9"/>
    <path d="M729.7357,1356.6952h-6.1297v-248.1596c0-9.8331,8.0013-17.8325,17.8344-17.8325h44.4863v6.1297h-44.4863c-6.4549,0-11.7047,5.2498-11.7047,11.7028v248.1596Z" fill="#3fb8a9"/>
    <path d="M1588.48,1381.6853c.9195,2.4927,1.4098,4.9651,1.5324,7.3965-36.4719-25.0706-67.856-57.1493-67.856-57.1493,45.9729-32.5897,39.8432-135.3645,39.8432-135.3645,0,0,51.8778-45.2987,59.0291-34.3468,7.1514,10.9517-18.3891,73.7813,0,99.5874,18.3892,25.7856-47.7095,78.0925-32.5487,119.8767Z" fill="#4f91b3"/>
    <path d="M1680.5687,980.802c-4.2909-12.7498-10.6248-19.8194-10.6248-19.8194,0,0,9.2967-11.5238,10.6453-25.8673,0,0,12.4023,28.6257-.0205,45.6867Z" fill="#de6667"/>
    <g>
      <circle cx="1131.4561" cy="618.8494" r="51.7718" transform="translate(-150.6964 480.0965) rotate(-22.5)" fill="#fff"/>
      <g>
        <rect x="1234.1343" y="568.3693" width="229.9054" height="14.8534" fill="#fff"/>
        <rect x="1234.1343" y="612.2838" width="229.9054" height="14.8534" fill="#fff"/>
        <rect x="1234.1343" y="655.7678" width="127.2229" height="14.8534" fill="#fff"/>
      </g>
    </g>
    <g>
      <circle cx="719.1833" cy="1484.739" r="9.7265" transform="translate(-890.7195 1845.1382) rotate(-76.7736)" fill="#b6d5d0"/>
      <circle cx="719.1833" cy="1444.739" r="9.7265" transform="translate(-851.7805 1814.2902) rotate(-76.7736)" fill="#b6d5d0"/>
      <circle cx="719.1833" cy="1404.739" r="9.7265" transform="translate(-812.8416 1783.4422) rotate(-76.7736)" fill="#b6d5d0"/>
    </g>
  </g>
</svg>